<svg width="128" height="58" xmlns="http://www.w3.org/2000/svg" fill="#FFFFFF">

 <g>
  <title>Layer 1</title>
  <path id="svg_1" fill="#ffffff" d="m63.3719,2.27198c8.7939,0 16.7419,3.63528 22.4366,9.48564l0.9035,-0.8889c-5.9214,-6.0889 -14.1898,-9.86872 -23.3401,-9.86872c-9.1504,0 -17.4188,3.77982 -23.3438,9.86872l0.9071,0.8889c5.6911,-5.84675 13.6427,-9.48564 22.4367,-9.48564zm0,13.44614c5.385,0 10.2194,2.3814 13.5167,6.1504l0.9539,-0.842c-3.5241,-4.0364 -8.7004,-6.5876 -14.467,-6.5876c-5.7703,0 -10.943,2.5512 -14.4706,6.5876l0.9539,0.842c3.2901,-3.769 8.1244,-6.1504 13.5131,-6.1504zm17.6455,-5.68414c-0.378,-0.28908 -0.6552,-0.18429 -0.9144,-0.02168l-7.1201,4.64352l1.5047,0.8491l5.1331,-3.3461l-0.8099,2.8113l-0.666,-0.5131l-1.357,0.8853l1.5694,1.2106l-0.4571,1.5791l1.3354,1.2287l2.3542,-8.2029c0.0936,-0.2891 0.1224,-0.58903 -0.2556,-0.87811l-0.3167,-0.24573zm-31.1658,5.64444c0.4355,-0.3541 0.7271,-0.8347 0.7703,-1.3154c0.054,-0.5854 -0.1044,-0.9901 -0.6623,-1.6767l-2.8294,-3.49792l1.2563,-1.02265l3.0957,3.82317c0.6444,0.8022 0.9107,1.6117 0.8135,2.4753c-0.1116,0.9757 -0.5723,1.7635 -1.4254,2.4645c-0.8567,0.6974 -1.7243,0.9901 -2.6998,0.8998c-0.8639,-0.0831 -1.5982,-0.5095 -2.2461,-1.3045l-3.0957,-3.8268l1.2562,-1.0227l2.833,3.498c0.5543,0.6866 0.9179,0.9287 1.501,0.9937c0.468,0.0542 0.9971,-0.1301 1.4327,-0.4878zm6.7565,-9.05206l0.3708,1.83932l3.6752,-0.75163l0.2988,1.48158l-3.6752,0.75163l0.1583,0.77331c0.1728,0.85645 0.5112,1.00455 1.2743,0.84915l2.9553,-0.60343l0.306,1.50323l-3.0453,0.6216c-1.4111,0.2891 -2.6853,-0.1157 -3.0417,-1.8755l-1.0475,-5.16382c-0.0756,-0.37943 0.1296,-0.65045 0.4751,-0.72272l5.0072,-1.02264l0.3059,1.50325l-4.0172,0.81667zm10.9106,6.36356l-0.9827,-0.2566c-0.342,-0.0903 -0.5328,-0.3722 -0.432,-0.748l1.3319,-5.10239c0.4535,-1.73453 1.7458,-2.06336 3.1389,-1.69839l3.0057,0.79138l-0.3888,1.48518l-2.9157,-0.76969c-0.7559,-0.19875 -1.1015,-0.07227 -1.3247,0.77331l-0.198,0.76608l3.6321,0.95399l-0.3816,1.45989l-3.632,-0.9576l-0.8531,3.30284zm30.453,43.1102l0.3816,0c0.2664,0 0.5075,-0.0145 0.5075,-0.3397c0,-0.2602 -0.234,-0.3072 -0.4571,-0.3072l-0.432,0l0,0.6469zm0,0.271l0,0.9106l-0.3132,0l0,-2.0995l0.7956,0c0.4931,0 0.7379,0.1843 0.7379,0.5963c0,0.3758 -0.234,0.5384 -0.54,0.5781l0.5904,0.9251l-0.3528,0l-0.5507,-0.9106l-0.3672,0zm-1.0943,-0.1482c0,0.8781 0.648,1.525 1.4795,1.525c0.8207,0 1.4686,-0.6469 1.4686,-1.525c0,-0.86 -0.6515,-1.5105 -1.4686,-1.5105c-0.8315,0 -1.4795,0.6505 -1.4795,1.5105zm1.4795,1.8285c-0.9971,0 -1.843,-0.7697 -1.843,-1.8285c0,-1.0443 0.8459,-1.814 1.843,-1.814c0.9863,0 1.8361,0.7697 1.8361,1.814c-0.004,1.0588 -0.8498,1.8285 -1.8361,1.8285zm-9.8595,-13.0595l0,7.8921c0,0.4264 -0.1835,0.6215 -0.6983,0.6432l0,0.4155l8.0164,0c0.018,-0.8383 0.0468,-1.6477 0.1836,-2.8944l-0.5039,0c-0.2556,1.2792 -0.5148,1.5538 -1.3355,1.5538l-3.4161,0l0,-3.2125l2.0194,0c0.6804,0 0.7883,0.2313 0.8819,0.7769l0.4104,0c-0.0432,-0.3649 -0.0864,-1.0371 -0.0864,-1.449c0,-0.4083 0.0432,-1.066 0.0864,-1.4491l-0.4104,0c-0.0936,0.5457 -0.2015,0.777 -0.8819,0.777l-2.0194,0l0,-2.8945l3.2469,0c0.8207,0 1.0331,0.2891 1.1843,1.1274l0.4139,0c-0.0756,-0.8239 -0.1079,-1.5032 -0.1223,-2.3416l-7.6709,0l0,0.4156c0.5219,0.0144 0.7019,0.2168 0.7019,0.6396zm-12.2892,-0.047l0,5.6914c0,2.6054 1.4579,3.5088 4.19,3.5088c2.7322,0 4.1936,-0.8998 4.1936,-3.7184l0,-5.4818c0,-0.43 0.18,-0.6252 0.6983,-0.6396l0,-0.4192c-0.4895,0.047 -1.1087,0.0904 -1.7458,0.0904c-0.7919,0 -1.4147,-0.047 -2.0194,-0.0904l0,0.4192c0.6515,0.0289 0.8207,0.1518 0.8207,0.7444l0,5.695c0,1.6912 -0.7127,2.0598 -1.9438,2.0598c-1.2275,0 -1.9438,-0.3361 -1.9438,-2.0598l0,-5.695c0,-0.5926 0.1656,-0.7155 0.8207,-0.7444l0,-0.4192c-0.6083,0.047 -1.2275,0.0904 -2.0194,0.0904c-0.6371,0 -1.2599,-0.047 -1.7458,-0.0904l0,0.4192c0.5111,0.0144 0.6947,0.2096 0.6947,0.6396zm-6.0114,5.4385l0,1.0913c0,0.701 -0.5903,1.2033 -1.6702,1.2033c-1.7603,0 -2.8258,-2.132 -2.8258,-4.0219c0,-1.9622 1.0331,-3.5883 3.1461,-3.5883c1.2599,0 2.5414,0.6721 2.7358,2.0272l0.4391,0c-0.0612,-1.048 -0.0936,-1.9116 -0.0936,-2.656c-0.8171,-0.5131 -1.9438,-0.7083 -2.9913,-0.7083c-3.2793,0 -5.4822,2.002 -5.4822,5.3084c0,2.7427 1.825,5.106 4.6759,5.106c1.0331,0 2.0374,-0.3216 2.9913,-1.2178l0.3492,1.0191l0.8783,0l0,-3.4113c0,-0.6866 0.2736,-0.8239 0.8063,-0.8419l0,-0.477c-0.6803,0.0469 -1.3499,0.0939 -2.0338,0.0939c-0.6371,0 -1.2599,-0.0506 -1.8826,-0.0939l0,0.5095c0.6839,0.0144 0.9575,0.047 0.9575,0.6577zm-12.2496,-0.8167l-2.1418,0c0.396,-1.0769 0.8819,-2.2802 1.2311,-3.4944l0.0288,0c0.3059,1.5322 0.5615,2.5043 0.8819,3.4944zm-5.817,3.9605l0,0.4155c0.5327,-0.0469 1.0475,-0.0939 1.5802,-0.0939c0.5148,0 1.0475,0.047 1.5658,0.0939l0,-0.4155c-0.5039,-0.0289 -0.7127,-0.2132 -0.7127,-0.4879c0,-0.1481 0.0468,-0.3179 0.1224,-0.5311l0.6695,-1.7924l2.959,0l0.4859,1.4744c0.0792,0.1987 0.1548,0.5456 0.1548,0.7624c0,0.3469 -0.198,0.4698 -0.7595,0.5746l0,0.4155c0.6515,-0.0469 1.3066,-0.0939 1.9582,-0.0939c0.6371,0 1.2923,0.047 1.9294,0.0939l0,-0.4155c-0.4536,-0.1193 -0.6803,-0.318 -0.9143,-0.9865l-2.7898,-8.6654c-0.4715,0.047 -0.9575,0.0903 -1.4254,0.0903c-0.4716,0 -0.9395,-0.047 -1.4255,-0.0903l0,0.4119c0.4068,0 0.576,0.2458 0.576,0.3975c0,0.1554 -0.1044,0.365 -0.1944,0.5963l-2.9769,7.5488c-0.162,0.3975 -0.36,0.636 -0.8027,0.6974zm-9.3195,-8.5353l0,7.8921c0,0.4264 -0.1836,0.6215 -0.6984,0.6432l0,0.4155l8.02,0c0.0144,-0.8383 0.0468,-1.6477 0.1836,-2.8944l-0.5039,0c-0.2556,1.2792 -0.5148,1.5538 -1.3355,1.5538l-3.4125,0l0,-3.1655l2.0158,0c0.684,0 0.792,0.2277 0.882,0.7769l0.4139,0c-0.0432,-0.365 -0.09,-1.0407 -0.09,-1.449c0,-0.412 0.0468,-1.0697 0.09,-1.4491l-0.4139,0c-0.09,0.5457 -0.198,0.7769 -0.882,0.7769l-2.0158,0l0,-2.9414l3.2469,0c0.8207,0 1.0331,0.2891 1.1843,1.1274l0.4176,0c-0.0756,-0.8239 -0.1044,-1.5032 -0.1224,-2.3416l-7.6673,0l0,0.4156c0.5076,0.0144 0.6876,0.2168 0.6876,0.6396zm-9.6579,-0.047l0,7.9427c0,0.4264 -0.1836,0.6215 -0.6983,0.6432l0,0.4156l7.5484,0c0.0144,-0.9902 0.18,-1.9694 0.3636,-2.9596l-0.4896,0c-0.2555,1.16 -0.6659,1.6153 -1.6702,1.6153l-2.8077,0l0,-7.4621c0,-0.4264 0.108,-0.8058 0.8819,-0.8347l0,-0.4192c-0.4392,0.047 -1.3643,0.0904 -2.005,0.0904c-0.5616,0 -1.1555,-0.047 -1.8214,-0.0904l0,0.4192c0.5147,0.0144 0.6983,0.2096 0.6983,0.6396zm-21.2811,-7.8596l0.2483,-2.45c-1.1699,0.9901 -2.91929,1.655 -4.13597,1.655c-2.86533,0 -4.90633,-2.815 -4.90633,-5.3011c0,-3.2992 1.91142,-5.2578 4.38438,-5.2578c1.82142,0 3.08852,0.9685 3.43762,2.7969l0.5688,0c-0.108,-1.4346 -0.1872,-2.8764 -0.1872,-4.3724c-0.5003,-0.1988 -1.77822,-0.5348 -3.55645,-0.5348c-5.07911,0 -7.72485,3.6931 -7.72485,7.5235c0,3.7401 2.64574,7.3898 7.33609,7.3898c1.25628,0 3.18931,-0.4156 4.53561,-1.4491zm34.7078,-9.0882l-0.4356,8.2463c-0.0396,0.8275 -0.3527,1.0045 -1.1195,1.0696l0,0.4914c0.6084,-0.0578 1.3391,-0.1192 2.0626,-0.1192c0.7488,0 1.4759,0.0614 2.2606,0.1192l0,-0.4914c-1.1807,-0.1409 -1.2779,-0.3541 -1.2779,-1.3443c0,-0.5312 0.0396,-1.0624 0.0576,-2.0886l0.1584,-5.7854l0.0396,0l3.7545,9.8181l1.6522,0l3.2829,-9.6988l0.0396,0l0.4535,5.8829c0.0576,0.6504 0.1188,1.5394 0.1188,2.0128c0,0.907 -0.2556,1.084 -1.2203,1.2033l0,0.4914c0.8064,-0.0578 1.6523,-0.1192 2.5162,-0.1192c0.8459,0 1.7098,0.0614 2.5557,0.1192l0,-0.4914c-0.3959,-0.0614 -0.9647,-0.1409 -1.0043,-0.6505l-0.6263,-8.4269c-0.0576,-0.6685 -0.1368,-1.5574 -0.1368,-2.1103c0,-0.5348 0.0972,-0.748 0.7847,-0.8094l0,-0.5168c-0.6695,0.0614 -1.357,0.1193 -2.0446,0.1193c-0.6839,0 -1.3534,-0.0579 -2.0446,-0.1193l-3.0849,9.1496l-3.4376,-9.1496c-0.7092,0.0614 -1.4183,0.1193 -2.1238,0.1193c-0.7092,0 -1.4147,-0.0579 -2.005,-0.1193l0,0.5168c0.7451,0.0975 0.8819,0.177 0.8819,0.7877c0.0036,0.7914 -0.036,1.3407 -0.0576,1.8935zm-16.8428,9.811l0,-0.4915c0.5688,-0.0795 0.8279,-0.3975 1.0223,-0.9106l3.8553,-9.8073c0.1151,-0.2963 0.2555,-0.571 0.2555,-0.7661c0,-0.1987 -0.216,-0.5167 -0.7451,-0.5167l0,-0.5168c0.6299,0.0614 1.2383,0.1193 1.8466,0.1193c0.6084,0 1.2383,-0.0579 1.8502,-0.1193l3.6177,11.2311c0.2952,0.8672 0.5903,1.1274 1.1807,1.2864l0,0.4915c-0.8243,-0.0579 -1.6703,-0.1193 -2.4946,-0.1193c-0.8459,0 -1.6918,0.0614 -2.5341,0.1193l0,-0.4915c0.7271,-0.1409 0.9827,-0.2963 0.9827,-0.7516c0,-0.2747 -0.1008,-0.73 -0.198,-0.9865l-0.6264,-1.9116l-3.8444,0l-0.8639,2.3271c-0.1008,0.2747 -0.1584,0.4915 -0.1584,0.6902c0,0.3542 0.2736,0.5927 0.9251,0.6324l0,0.4915c-0.6695,-0.0579 -1.357,-0.1193 -2.023,-0.1193c-0.6947,0 -1.3606,0.0614 -2.0482,0.1193zm4.7552,-5.6481l2.7717,0c-0.414,-1.2828 -0.7487,-2.544 -1.1411,-4.5387l-0.0396,0c-0.45,1.5792 -1.0799,3.1402 -1.591,4.5387zm-18.7542,-6.0166l0,10.3421c0,0.5492 -0.234,0.8094 -0.9071,0.8275l0,0.5059c0.8639,-0.0578 1.6342,-0.1156 2.3577,-0.1156c0.7308,0 1.4939,0.0578 2.3578,0.1156l0,-0.5059c-0.6695,-0.0181 -0.9035,-0.2746 -0.9035,-0.8275l0,-4.5423l4.7587,0l0,4.5423c0,0.5492 -0.2339,0.8094 -0.9035,0.8275l0,0.5023c0.8639,-0.0578 1.6343,-0.1157 2.3614,-0.1157c0.7271,0 1.4938,0.0579 2.3578,0.1157l0,-0.5023c-0.666,-0.0217 -0.9035,-0.2783 -0.9035,-0.8275l0,-10.3421c0,-0.5565 0.2375,-0.8131 0.9035,-0.8275l0,-0.5168c-0.864,0.0614 -1.6343,0.1193 -2.3578,0.1193c-0.7271,0 -1.4939,-0.0579 -2.3614,-0.1193l0,0.5168c0.6696,0.018 0.9035,0.2746 0.9035,0.8275l0,3.9063l-4.7551,0l0,-3.9063c0,-0.5565 0.2376,-0.8131 0.9035,-0.8275l0,-0.5168c-0.8639,0.0614 -1.6306,0.1193 -2.3578,0.1156c-0.7271,0 -1.4938,-0.0542 -2.3577,-0.1156l0,0.5168c0.6659,0.018 0.9035,0.2746 0.9035,0.8275zm102.2153,7.1766l-0.496,0c0.1,1.178 0.162,2.5801 0.162,4.1845c1.357,0.4842 2.915,0.73 4.391,0.73c3.301,0 5.99,-1.4238 5.99,-4.1051c0,-2.6415 -1.901,-3.3895 -3.945,-3.9786l-2.124,-0.6107c-0.832,-0.2457 -1.803,-0.5709 -1.803,-1.6875c0,-1.4021 1.699,-1.7237 2.714,-1.7237c1.818,0 3.337,0.8745 3.761,2.7463l0.508,0c-0.083,-1.0587 -0.162,-2.2982 -0.162,-3.7617c-1.174,-0.4264 -2.491,-0.6505 -3.762,-0.6505c-3.016,0 -6.054,0.9576 -6.054,4.1015c0,2.3994 2.062,3.2739 4.128,3.881l1.437,0.43c0.932,0.2855 2.188,0.6071 2.188,1.8249c0,1.5249 -1.72,1.8682 -2.912,1.8682c-2.167,0.0036 -3.617,-1.0335 -4.021,-3.2486zm-15.305,-7.1839l0,10.3385c0,0.5529 -0.238,0.8095 -0.907,0.8275l0,0.4951c0.629,-0.0578 1.277,-0.1192 1.929,-0.1192c0.608,0 1.238,0.0614 1.886,0.1192l0,-0.4951c-0.533,0 -1.177,-0.0758 -1.177,-1.1057l0,-8.5823l0.04,0l6.526,10.194l2.084,0l0,-11.672c0,-0.5565 0.234,-0.813 0.904,-0.8275l0,-0.5167c-0.63,0.0614 -1.275,0.1192 -1.926,0.1192c-0.609,0 -1.239,-0.0578 -1.886,-0.1192l0,0.5167c0.529,0 1.177,0.0795 1.177,1.1022l0,7.2055l-0.04,0l-5.428,-8.828c-0.609,0.1192 -1.199,0.1192 -1.728,0.1192c-0.731,0 -1.498,-0.0578 -2.361,-0.1192l0,0.5167c0.673,0.0181 0.907,0.2746 0.907,0.8311zm-23.6717,0.0073l0,10.3421c0,0.5492 -0.2339,0.8094 -0.9035,0.8275l0,0.4914c0.864,-0.0578 1.6307,-0.1192 2.3578,-0.1192c0.7307,0.0036 1.4975,0.0614 2.3614,0.1192l0,-0.4914c-0.666,-0.0217 -0.9035,-0.2783 -0.9035,-0.8275l0,-10.3421c0,-0.5565 0.2375,-0.8059 0.9035,-0.8275l0,-0.5168c-0.8639,0.0614 -1.6307,0.1193 -2.3614,0.1193c-0.7271,0 -1.4938,-0.0579 -2.3578,-0.1193l0,0.5168c0.6696,0.0216 0.9035,0.2746 0.9035,0.8275zm-10.7557,9.9843l0,-9.3772l1.2203,-0.1265c1.7278,0 2.8293,0.6287 2.8293,2.4066c0,1.637 -0.8027,2.8006 -2.8653,2.8006c-0.2592,0 -0.5112,-0.0579 -0.6912,-0.0579c-0.1763,0 -0.2951,0 -0.2951,0.1771c0,0.4156 1.4182,0.907 2.3793,0.907c2.5342,0 4.3808,-1.4996 4.3844,-3.946c0,-2.2874 -1.3211,-4.0256 -4.9567,-4.0256l-5.817,0l0,0.5457c0.6695,0.0217 0.9035,0.2782 0.9035,0.8311l0,9.6483c0,0.9251 -0.1368,1.2612 -0.9035,1.4021l0,0.4914c0.8639,-0.0578 1.6306,-0.1192 2.3577,-0.1192c0.7272,0 1.4975,0.0614 2.7358,0.1192l0,-0.4914c-1.1447,-0.2168 -1.2815,-0.4734 -1.2815,-1.1853zm23.7433,-9.6085c2.9481,0 3.8336,3.3534 3.8336,5.6408c0,2.1537 -1.1627,3.9497 -3.1677,3.9497c-2.8113,0 -3.8336,-3.3751 -3.8336,-5.6842c0.0036,-1.5756 0.7307,-3.9063 3.1677,-3.9063zm0.216,11.484c3.5204,0 6.5261,-2.5042 6.5261,-6.6671c0,-3.516 -2.4153,-6.7068 -6.4253,-6.7068c-3.6177,0 -6.3894,2.721 -6.3894,6.4683c0,3.61 2.3758,6.9056 6.2886,6.9056z"/>
 </g>
</svg>